<svg version="1.1" xmlns="http://www.w3.org/2000/svg" viewBox="0 0 614.9659620312746 279.03403796872544" width="614.9659620312746" height="279.03403796872544">
  <!-- svg-source:excalidraw -->
  
  <defs>
    <style class="style-fonts">
      @font-face {
        font-family: "Virgil";
        src: url("https://excalidraw.com/Virgil.woff2");
      }
      @font-face {
        font-family: "Cascadia";
        src: url("https://excalidraw.com/Cascadia.woff2");
      }
      @font-face {
        font-family: "Assistant";
        src: url("https://excalidraw.com/Assistant-Regular.woff2");
      }
    </style>
    
  </defs>
  <rect x="0" y="0" width="614.9659620312746" height="279.03403796872544" fill="#ffffff"></rect><g stroke-linecap="round" transform="translate(10 10) rotate(0 88 37)"><path d="M0 0 L176 0 L176 74 L0 74" stroke="none" stroke-width="0" fill="#40c057"></path><path d="M0 0 C56.54 0, 113.09 0, 176 0 M0 0 C65.69 0, 131.37 0, 176 0 M176 0 C176 29.1, 176 58.21, 176 74 M176 0 C176 27.61, 176 55.21, 176 74 M176 74 C120.24 74, 64.49 74, 0 74 M176 74 C114.73 74, 53.46 74, 0 74 M0 74 C0 49.34, 0 24.68, 0 0 M0 74 C0 52.28, 0 30.57, 0 0" stroke="transparent" stroke-width="4" fill="none"></path></g><g transform="translate(67.9677734375 26.299999999999997) rotate(0 30.0322265625 20.699999999999996)"><text x="30.0322265625" y="33.120703125" font-family="Helvetica, Segoe UI Emoji" font-size="36px" fill="#ffffff" text-anchor="middle" style="white-space: pre;" direction="ltr" dominant-baseline="alphabetic">one</text></g><g stroke-linecap="round" transform="translate(222.0000000000001 10.034037968725414) rotate(0 87.03403796872544 37)"><path d="M0 0 L174.07 0 L174.07 74 L0 74" stroke="none" stroke-width="0" fill="#8cc7b5"></path><path d="M0 0 C42.73 0, 85.46 0, 174.07 0 M0 0 C59.89 0, 119.77 0, 174.07 0 M174.07 0 C174.07 22.02, 174.07 44.04, 174.07 74 M174.07 0 C174.07 24.16, 174.07 48.33, 174.07 74 M174.07 74 C123.19 74, 72.31 74, 0 74 M174.07 74 C131.91 74, 89.75 74, 0 74 M0 74 C0 50.61, 0 27.21, 0 0 M0 74 C0 58.16, 0 42.33, 0 0" stroke="#8cc7b5" stroke-width="4" fill="none"></path></g><g transform="translate(281.02329578122556 26.33403796872541) rotate(0 28.0107421875 20.699999999999996)"><text x="28.0107421875" y="33.120703125" font-family="Helvetica, Segoe UI Emoji" font-size="36px" fill="#ffffff" text-anchor="middle" style="white-space: pre;" direction="ltr" dominant-baseline="alphabetic">two</text></g><g stroke-linecap="round" transform="translate(431.86384812509823 11.068075937450914) rotate(0 86.55105695308816 37)"><path d="M0 0 L173.1 0 L173.1 74 L0 74" stroke="none" stroke-width="0" fill=" #d1ba74"></path><path d="M0 0 C50.15 0, 100.3 0, 173.1 0 M0 0 C36.69 0, 73.39 0, 173.1 0 M173.1 0 C173.1 29.6, 173.1 59.2, 173.1 74 M173.1 0 C173.1 22.72, 173.1 45.43, 173.1 74 M173.1 74 C129.1 74, 85.1 74, 0 74 M173.1 74 C125.87 74, 78.64 74, 0 74 M0 74 C0 57.99, 0 41.98, 0 0 M0 74 C0 54.27, 0 34.55, 0 0" stroke=" #d1ba74" stroke-width="4" fill="none"></path></g><g transform="translate(477.3875613281864 27.36807593745091) rotate(0 41.02734375 20.699999999999996)"><text x="41.02734375" y="33.120703125" font-family="Helvetica, Segoe UI Emoji" font-size="36px" fill="#ffffff" text-anchor="middle" style="white-space: pre;" direction="ltr" dominant-baseline="alphabetic">three</text></g><g stroke-linecap="round" transform="translate(10.965962031274557 109.03403796872541) rotate(0 86.5 80)"><path d="M0 0 L173 0 L173 160 L0 160" stroke="none" stroke-width="0" fill="#bee7e9"></path><path d="M0 0 C42.66 0, 85.32 0, 173 0 M0 0 C60.3 0, 120.61 0, 173 0 M173 0 C173 40.27, 173 80.53, 173 160 M173 0 C173 49.46, 173 98.92, 173 160 M173 160 C129.46 160, 85.92 160, 0 160 M173 160 C118.14 160, 63.27 160, 0 160 M0 160 C0 114.52, 0 69.04, 0 0 M0 160 C0 123.89, 0 87.77, 0 0" stroke="#bee7e9" stroke-width="4" fill="none"></path></g><g transform="translate(66.44936046877456 168.33403796872543) rotate(0 31.0166015625 20.69999999999999)"><text x="31.0166015625" y="33.120703125" font-family="Helvetica, Segoe UI Emoji" font-size="36px" fill="#ffffff" text-anchor="middle" style="white-space: pre;" direction="ltr" dominant-baseline="alphabetic">four</text></g><g stroke-linecap="round" transform="translate(222.53403796872556 108.06807593745086) rotate(0 86.5 80)"><path d="M0 0 L173 0 L173 160 L0 160" stroke="none" stroke-width="0" fill="#e6ceac"></path><path d="M0 0 C68.19 0, 136.38 0, 173 0 M0 0 C47.18 0, 94.36 0, 173 0 M173 0 C173 45.72, 173 91.44, 173 160 M173 0 C173 58.52, 173 117.05, 173 160 M173 160 C109.29 160, 45.59 160, 0 160 M173 160 C109.43 160, 45.87 160, 0 160 M0 160 C0 110.95, 0 61.89, 0 0 M0 160 C0 117.11, 0 74.22, 0 0" stroke="#e6ceac" stroke-width="4" fill="none"></path></g><g transform="translate(281.02329578122556 167.36807593745087) rotate(0 28.0107421875 20.69999999999999)"><text x="28.0107421875" y="33.120703125" font-family="Helvetica, Segoe UI Emoji" font-size="36px" fill="#ffffff" text-anchor="middle" style="white-space: pre;" direction="ltr" dominant-baseline="alphabetic">five</text></g><g stroke-linecap="round" transform="translate(431.5 108.03403796872541) rotate(0 86.5 80)"><path d="M0 0 L173 0 L173 160 L0 160" stroke="none" stroke-width="0" fill="#ecad9e"></path><path d="M0 0 C36.57 0, 73.14 0, 173 0 M0 0 C55.88 0, 111.76 0, 173 0 M173 0 C173 34.98, 173 69.97, 173 160 M173 0 C173 34.3, 173 68.6, 173 160 M173 160 C112.86 160, 52.72 160, 0 160 M173 160 C116.81 160, 60.63 160, 0 160 M0 160 C0 123.6, 0 87.19, 0 0 M0 160 C0 107.72, 0 55.44, 0 0" stroke="#ecad9e" stroke-width="4" fill="none"></path></g><g transform="translate(496.0009765625 167.33403796872543) rotate(0 21.9990234375 20.69999999999999)"><text x="21.9990234375" y="33.120703125" font-family="Helvetica, Segoe UI Emoji" font-size="36px" fill="#ffffff" text-anchor="middle" style="white-space: pre;" direction="ltr" dominant-baseline="alphabetic">six</text></g></svg>